PathFileType	4	(X/Y/Z)	P:\Projects\LMB_grand_challenge_database\project_only\opensim\experimental_data\SixthCompetition/DM_ngait_og9_new.trc
DataRate	CameraRate	NumFrames	NumMarkers	Units	OrigDataRate	OrigDataStartFrame	OrigNumFrames
120	120	4	68	mm	120	138	369
Frame#	Time	Sternum			Neck			R_Shoulder			L_Shoulder			Xiphoid			Thoracic			R_Asis			L_Asis			R_Psis			L_Psis			Lumbar			R_Elbow			R_ElbowMedial			R_ShoulderAnterior			R_ShoulderPosterior			R_Wrist			R_Radius			R_Ulna			L_Elbow			L_ElbowMedial			L_ShoulderAnterior			L_ShoulderPosterior			L_Wrist			L_Ulna			L_Radius			L_Thigh_Superior			L_Thigh_Inferior			L_Thigh_Lateral			L_Knee_Lateral			L_Knee_Medial			L_Patella			L_Shank_Superior			L_Shank_Inferior			L_Shank_Lateral			L_Ankle_Lateral			L_Ankle_Medial			R_Thigh_Superior			R_Thigh_Inferior			R_Thigh_Lateral			R_Knee_Lateral			R_Knee_Medial			R_Patella			R_Shank_Superior			R_Shank_Inferior			R_Shank_Lateral			R_Ankle_Lateral			RankleMedial			R_Heel			R_Toe			R_Midfoot_Medial			R_Midfoot_Lateral			R_Hindfoot			R_Midfoot_Superior			R_ToeMedial			R_ToeLateral			L_Heel			L_Toe			L_Midfoot_Medial			L_Midfoot_Lateral			L_Hindfoot			L_Midfoot_Superior			L_ToeMedial			L_ToeLateral			Oglobal			Sacral			Xglobal			Yglobal			Zglobal			
		X1	Y1	Z1	X2	Y2	Z2	X3	Y3	Z3	X4	Y4	Z4	X5	Y5	Z5	X6	Y6	Z6	X7	Y7	Z7	X8	Y8	Z8	X9	Y9	Z9	X10	Y10	Z10	X11	Y11	Z11	X12	Y12	Z12	X13	Y13	Z13	X14	Y14	Z14	X15	Y15	Z15	X16	Y16	Z16	X17	Y17	Z17	X18	Y18	Z18	X19	Y19	Z19	X20	Y20	Z20	X21	Y21	Z21	X22	Y22	Z22	X23	Y23	Z23	X24	Y24	Z24	X25	Y25	Z25	X26	Y26	Z26	X27	Y27	Z27	X28	Y28	Z28	X29	Y29	Z29	X30	Y30	Z30	X31	Y31	Z31	X32	Y32	Z32	X33	Y33	Z33	X34	Y34	Z34	X35	Y35	Z35	X36	Y36	Z36	X37	Y37	Z37	X38	Y38	Z38	X39	Y39	Z39	X40	Y40	Z40	X41	Y41	Z41	X42	Y42	Z42	X43	Y43	Z43	X44	Y44	Z44	X45	Y45	Z45	X46	Y46	Z46	X47	Y47	Z47	X48	Y48	Z48	X49	Y49	Z49	X50	Y50	Z50	X51	Y51	Z51	X52	Y52	Z52	X53	Y53	Z53	X54	Y54	Z54	X55	Y55	Z55	X56	Y56	Z56	X57	Y57	Z57	X58	Y58	Z58	X59	Y59	Z59	X60	Y60	Z60	X61	Y61	Z61	X62	Y62	Z62	X63	Y63	Z63	X64	Y64	Z64	X65	Y65	Z65	X66	Y66	Z66	X67	Y67	Z67	X68	Y68	Z68	

139	3.575	-189.654	1384.7	210.281	-348.317	1465.61	234.87	-237.301	1406.12	388.959	-300.348	1439.48	52.5067	-171.817	1218.14	203.027	-436.683	1276.63	226.214	-239.877	991.965	338.072	-253.496	990.852	60.1443	-447.484	1028.27	239.934	-451.722	1027.59	161.347	-449.113	1077.76	202.814	-278.489	1096.11	493.069	-0	0	0	-0	0	0	-0	0	0	-217.158	822.2619999999999	467.701	-222.973	832.808	423.802	-261.023	829.078	485.774	-307.132	1103.81	-53.2282	-0	0	0	-0	0	0	-0	0	0	-217.133	850.615	-49.9415	-261.297	856.96	-70.6855	-227.194	863.2190000000001	-4.51882	-281.027	821.843	25.4147	-184.991	616.347	41.4788	-164.157	715.875	65.8664	-0	0	0	-0	0	0	-131.052	514.28	86.7711	-241.46	480.109	40.5359	-424.911	284.891	60.8341	-297.912	349.576	114.102	-0	0	0	-0	0	0	-315.288	803.083	359.679	-291.645	589.095	310.056	-226.972	717.376	331.05	-0	0	0	-0	0	0	-215.327	506.504	233.773	-337.562	396.055	317.876	-357.897	189.754	299.16	-283.873	309.783	230.441	-0	0	0	-0	0	0	-455.23	62.7237	241.943	-154.803	51.6714	257.313	-231.424	29.7211	201.469	-247.776	28.8574	317.591	-357.753	28.2539	299.77	-291.315	118.721	252.334	-187.11	39.6692	212.754	-197.695	39.2176	303.469	-545.299	230.939	131.141	-317.532	43.9999	80.7253	-382.59	74.47839999999999	145.755	-412.302	85.17400000000001	35.7141	-497.381	144.517	61.2282	-382.046	177.1	94.47709999999999	-352.871	49.3335	128.7	-366.147	54.7728	35.9077	-0	0	0	-449.603	1027.93	200.64	-200	0	0	-0	0	200	-0	200	0	
140	3.583333	-181.611	1385.27	209.949	-340.19	1466.03	235.451	-228.638	1406.91	388.813	-293.709	1440.06	52.4322	-163.981	1218.61	202.64	-428.642	1277.24	227.046	-231.99	992.323	338.291	-245.992	991.321	60.1699	-439.67	1028.84	240.389	-443.94	1028.28	161.831	-441.316	1078.39	203.237	-268.479	1096.8	493.397	-0	0	0	-0	0	0	-0	0	0	-205.856	823.434	467.503	-211.054	833.631	424.272	-249.739	830.054	485.679	-306.399	1104.47	-53.5784	-0	0	0	-0	0	0	-0	0	0	-218.867	850.3680000000001	-53.634	-263.558	857.123	-72.3479	-226.772	863.253	-7.59566	-272.48	823.422	25.218	-174.018	618.891	41.8356	-154.407	718.519	66.5613	-0	0	0	-0	0	0	-118.488	518.071	87.0005	-227.7	480.631	40.7312	-404.572	279.077	59.9188	-280.496	348.459	113.569	-0	0	0	-0	0	0	-308.629	803.4349999999999	359.803	-288.274	589.332	310.347	-221.782	716.856	330.96	-0	0	0	-0	0	0	-212.291	505.563	233.922	-335.651	396.222	318.053	-357.193	190.078	299.3	-282.478	309.805	230.671	-0	0	0	-0	0	0	-455.605	62.9964	241.797	-154.307	51.5976	256.97	-231.845	29.4891	201.489	-248.287	28.6477	317.599	-357.759	28.3494	299.813	-291.13	118.768	252.349	-187.068	39.5518	212.749	-197.665	39.1373	303.465	-523.397	219.918	129.231	-286.803	43.7301	81.5718	-353.537	71.56440000000001	146.742	-382.967	79.5508	36.3958	-470.409	134.896	60.5305	-357.874	173.591	94.3194	-323.038	47.7995	129.412	-335.726	52.1982	35.924	-0	0	0	-441.805	1028.56	201.11	-200	0	0	-0	0	200	-0	200	0	
141	3.591667	-173.603	1385.59	209.589	-331.913	1466.49	235.757	-219.626	1407.45	388.614	-287.249	1440.42	52.522	-156.208	1218.77	202.235	-420.589	1277.68	227.765	-223.805	992.601	338.154	-238.811	991.63	59.8694	-431.752	1029.47	240.962	-436.314	1029.06	162.217	-433.441	1079.1	203.739	-258.194	1097.34	493.113	-0	0	0	-0	0	0	-0	0	0	-194.328	824.199	467.797	-199.616	834.7	424.29	-238.608	830.647	485.612	-305.405	1105.17	-53.7817	-0	0	0	-0	0	0	-0	0	0	-220.724	850.102	-57.1558	-265.942	857.222	-73.7933	-226.603	863.014	-10.6645	-264.006	824.641	24.8754	-163.402	621.125	42.4316	-144.631	720.881	67.3891	-0	0	0	-0	0	0	-106.727	521.562	87.2804	-214.415	481.83	40.1572	-383.784	273.064	58.9245	-262.681	347.156	113.453	-0	0	0	-0	0	0	-302.16	804.09	359.5	-284.106	589.1180000000001	310.414	-216.758	716.395	331.046	-0	0	0	-0	0	0	-210.002	504.843	234.177	-333.921	396.352	318.313	-356.635	190.345	299.412	-281.117	309.546	230.908	-0	0	0	-0	0	0	-455.588	63.3321	241.881	-154.263	51.4074	257.118	-231.892	29.5555	201.441	-248.308	28.4734	317.553	-357.765	28.3784	299.811	-291.002	118.819	252.522	-187.062	39.5033	212.703	-197.686	39.095	303.526	-501.058	209.174	127.335	-256.147	43.7371	82.0894	-324.442	69.4521	148.593	-353.97	73.3947	38.0549	-440.618	123.514	59.4441	-333.447	169.871	93.7239	-293.021	45.5643	129.359	-305.148	49.2308	35.7368	-0	0	0	-434.033	1029.26	201.59	-200	0	0	-0	0	200	-0	200	0	
142	3.6	-165.796	1385.79	209.031	-323.71	1466.85	236.124	-210.775	1407.74	388.371	-280.343	1440.57	52.556	-148.174	1219.04	201.752	-413.159	1278.14	228.889	-215.824	992.679	338.052	-231.48	991.8680000000001	59.6865	-423.912	1029.95	241.314	-428.67	1029.59	162.531	-425.624	1079.6	204.105	-248.456	1097.6	493.36	-0	0	0	-0	0	0	-0	0	0	-183.154	824.78	467.666	-188.297	835.472	424.017	-227.041	831.264	485.465	-304.366	1105.67	-53.8692	-0	0	0	-0	0	0	-0	0	0	-222.604	849.848	-60.3032	-268.171	857.323	-75.0737	-226.104	862.753	-13.8964	-256.911	826.62	24.3342	-153.298	622.832	42.735	-134.946	723.1849999999999	68.19629999999999	-0	0	0	-0	0	0	-95.2705	524.7569999999999	87.80070000000001	-201.667	482.203	40.766	-362.759	266.595	57.8057	-244.896	345.631	113.045	-0	0	0	-0	0	0	-295.292	804.174	359.03	-280.921	589.482	310.842	-211.619	715.7190000000001	331.031	-0	0	0	-0	0	0	-207.096	504.208	234.616	-332.032	396.538	318.474	-355.917	190.637	299.542	-279.615	309.173	230.767	-0	0	0	-0	0	0	-455.587	63.5676	241.887	-154.306	51.3242	256.95	-232.029	29.1532	201.224	-248.321	28.1838	317.353	-357.705	28.3481	299.784	-290.915	118.583	252.312	-187.242	39.1309	212.469	-197.506	38.8078	303.195	-478.008	198.27	125.661	-225.26	42.8387	81.6173	-296.733	64.4498	145.635	-325.35	69.80629999999999	34.9171	-415.689	117.188	57.2802	-308.849	165.695	92.90389999999999	-263.104	43.3927	128.776	-275.304	46.7425	35.0486	-0	0	0	-426.291	1029.77	201.922	-200	0	0	-0	0	200	-0	200	0	
